PathFileType	4	(X/Y/Z)	C:\Users\dbl\Desktop\20210112\20210112\bx_n_5_1802.trc
DataRate	CameraRate	NumFrames	NumMarkers	Units	OrigDataRate	OrigDataStartFrame	OrigNumFrames
50.00	50.00	       8	43	mm	50.00	393	       523
Frame#	Time	Top.Head			R.Acromium			L.Acromium			Sternum			R.ASIS			L.ASIS			V.Sacral			R.Thigh.Upper			R.Thigh.Front			R.Thigh.Rear			R.Knee.Lat			R.Knee.Med			R.Shank.Upper			R.Shank.Front			R.Shank.Rear			R.Ankle.Lat			R.Midfoot.Lat			R.Toe.Lat			R.Toe.Tip			R.Toe.Med			R.Ankle.Med			R.Midfoot.Sup			R.Heel			L.Thigh.Upper			L.Thigh.Front			L.Thigh.Rear			L.Knee.Lat			L.Knee.Med			L.Shank.Upper			L.Shank.Front			L.Shank.Rear			L.Ankle.Lat			L.Midfoot.Lat			L.Toe.Lat			L.Toe.Tip			L.Toe.Med			L.Ankle.Med			L.Midfoot.Sup			L.Heel			origin1 front left			origin2 front right			origin 3 back right			origin 4 back leftt			
		X1	Y1	Z1	X2	Y2	Z2	X3	Y3	Z3	X4	Y4	Z4	X5	Y5	Z5	X6	Y6	Z6	X7	Y7	Z7	X8	Y8	Z8	X9	Y9	Z9	X10	Y10	Z10	X11	Y11	Z11	X12	Y12	Z12	X13	Y13	Z13	X14	Y14	Z14	X15	Y15	Z15	X16	Y16	Z16	X17	Y17	Z17	X18	Y18	Z18	X19	Y19	Z19	X20	Y20	Z20	X21	Y21	Z21	X22	Y22	Z22	X23	Y23	Z23	X24	Y24	Z24	X25	Y25	Z25	X26	Y26	Z26	X27	Y27	Z27	X28	Y28	Z28	X29	Y29	Z29	X30	Y30	Z30	X31	Y31	Z31	X32	Y32	Z32	X33	Y33	Z33	X34	Y34	Z34	X35	Y35	Z35	X36	Y36	Z36	X37	Y37	Z37	X38	Y38	Z38	X39	Y39	Z39	X40	Y40	Z40	X41	Y41	Z41	X42	Y42	Z42	X43	Y43	Z43	

393	7.840	-232.93176	121.05647	1137.55615	-439.12021	-46.77482	936.77930	-446.58691	281.50467	930.27417	-577.59534	105.82130	767.25958	-803.65698	-3.82792	711.83521	-795.51923	236.74806	716.36993	-1004.07507	101.12984	743.62787	-796.29456	-77.77611	648.13983	-700.72284	-3.42382	696.62390	-692.93787	-68.37126	600.84479	-561.96277	-40.99062	543.42322	-531.22321	74.66331	532.38501	-548.19360	-38.39493	509.41830	-506.95935	13.25666	459.73599	-619.82666	-43.76324	455.08310	-743.33008	-8.44193	211.83386	-648.45923	-64.63427	165.33495	-610.51208	-75.04251	158.68597	-547.09412	-34.38511	162.00661	-594.80957	26.06056	164.66150	-700.22815	77.72240	205.69357	-670.65063	56.03623	150.24158	-785.63916	51.59911	181.15720	-810.68219	303.64786	624.40259	-706.79889	226.68976	691.14929	-679.04706	307.46872	586.58972	-583.49500	291.72125	537.98071	-508.38531	183.37956	528.08191	-549.57239	290.85629	507.28644	-499.28833	244.02478	467.10645	-609.94098	288.88803	455.68707	-755.64850	223.84671	207.69827	-661.88782	297.49335	158.64241	-625.90234	305.71039	159.07024	-554.70074	257.90433	162.86040	-590.38593	219.26514	172.81911	-694.96106	152.94014	207.16068	-673.24487	173.51292	153.10515	-787.65509	169.12029	191.84081	-528.43964	304.37341	146.63042	-517.91327	-72.38372	142.60046	-875.85022	-78.58631	141.10339	-882.64807	296.06012	144.60919	
394	7.860	-233.52530	120.64180	1142.40942	-439.55267	-46.81945	941.37671	-446.55817	281.35916	934.23248	-576.83905	105.66658	772.63849	-802.66663	-3.60487	715.27002	-795.03650	237.04388	719.49536	-1003.82983	101.78049	746.97546	-796.62115	-77.46397	650.38568	-700.40582	-3.46357	698.26672	-693.54974	-68.22391	602.25043	-562.79041	-41.28014	543.96301	-531.84985	74.44285	532.72101	-549.03662	-38.69810	509.87360	-507.58221	12.86640	460.07193	-620.56201	-43.75381	455.24036	-743.38391	-8.50765	211.80725	-648.51471	-64.65643	165.29485	-610.55884	-75.05235	158.68108	-547.16339	-34.48708	161.93901	-594.79498	26.00137	164.69633	-699.92590	78.42491	205.77647	-670.57129	56.07143	150.16734	-785.59393	51.60653	181.03632	-810.30237	303.85941	626.71802	-706.05023	226.90211	692.89526	-678.94470	307.20990	587.82013	-583.62689	291.04745	538.41699	-508.83423	182.93219	528.22986	-549.96729	290.57990	507.72552	-499.17615	243.40768	467.49551	-610.25232	288.56900	455.94855	-755.68542	223.85600	207.66101	-661.89240	297.53986	158.58339	-625.89929	305.70096	159.03371	-554.67560	257.90524	162.84578	-590.36658	219.26564	172.86116	-695.24377	152.64299	207.29909	-673.25836	173.50839	153.08173	-787.83887	169.19386	191.58524	-528.41943	304.36884	146.66287	-517.94714	-72.39214	142.59445	-875.82080	-78.61332	141.07857	-882.65387	296.06448	144.60556	
395	7.880	-234.34128	120.12215	1147.98645	-440.30444	-46.96572	946.60706	-446.64926	281.22546	938.79419	-576.06915	105.50261	778.49731	-801.67065	-3.37219	719.08051	-794.53076	237.35086	722.97461	-1003.54248	102.40987	750.55603	-796.86957	-77.21494	652.78064	-699.99939	-3.55060	700.06183	-694.13141	-68.13868	603.78436	-563.59259	-41.54193	544.42743	-532.38470	74.11346	533.05823	-549.87061	-39.08725	510.38058	-508.17313	12.46286	460.43768	-621.26428	-43.81443	455.40979	-743.43146	-8.61802	211.68599	-648.59399	-64.67899	165.23010	-610.59351	-75.06995	158.68964	-547.21863	-34.56825	161.86703	-594.77484	25.93244	164.72414	-699.72693	79.05114	205.90343	-670.23608	56.22060	150.20639	-785.52454	51.60820	180.95993	-809.83746	303.98996	629.18884	-705.25970	227.19769	694.90637	-678.85931	306.90222	589.21118	-583.79993	290.43558	538.98688	-509.24750	182.48608	528.42468	-550.37744	290.30124	508.22086	-499.09424	242.83127	467.78552	-610.64404	288.25909	456.35498	-755.73511	223.86024	207.58609	-661.89325	297.56400	158.53740	-625.88989	305.71201	158.99701	-554.63147	257.91275	162.81416	-590.30066	219.27878	172.91388	-695.54504	152.30093	207.48306	-673.26477	173.50308	153.06874	-788.05054	169.32755	191.36926	-528.41876	304.36066	146.67981	-517.99390	-72.41642	142.55127	-875.80475	-78.65370	141.06459	-882.65106	296.08862	144.60298	
396	7.900	-235.36230	119.50091	1154.39929	-441.37537	-47.28806	952.52515	-446.86926	281.12820	943.99683	-575.28687	105.33018	784.83789	-800.67212	-3.12910	723.27173	-794.05493	237.57419	726.73547	-1003.18286	102.97739	754.45898	-797.01794	-77.04179	655.35107	-699.47662	-3.78107	702.05054	-694.65656	-68.11473	605.47168	-564.40009	-41.84795	544.89496	-532.90973	73.68630	533.38025	-550.73895	-39.53565	510.88544	-508.72424	12.06694	460.91156	-621.97235	-44.03882	455.58554	-743.46075	-8.77410	211.47379	-648.69263	-64.70647	165.13542	-610.60315	-75.11283	158.72351	-547.24335	-34.62764	161.82748	-594.76971	25.85896	164.74785	-699.69019	79.45575	206.04771	-669.75195	56.47941	150.33723	-785.45776	51.59300	180.87862	-809.28455	304.05435	631.83661	-704.35461	227.49384	697.11707	-678.75861	306.61725	590.77435	-584.09839	289.90796	539.71503	-509.65771	182.04749	528.68585	-550.82544	289.95966	508.78540	-499.05542	242.15637	468.14801	-611.08984	287.95074	456.84085	-755.80322	223.89528	207.46103	-661.90088	297.58572	158.50621	-625.87854	305.73831	158.97316	-554.59698	257.91196	162.80005	-590.21521	219.31702	172.97166	-695.77527	152.07526	207.56476	-673.25824	173.50058	153.08282	-788.23999	169.48656	191.19075	-528.44257	304.36935	146.68175	-518.03217	-72.42239	142.48166	-875.80591	-78.68098	141.05626	-882.64148	296.12576	144.61308	
397	7.920	-236.55884	118.78890	1161.72412	-442.75305	-47.80859	959.19910	-447.24866	281.07571	949.91254	-574.49316	105.15004	791.66223	-799.67383	-2.87505	727.84900	-793.58484	237.70462	730.84741	-1002.72302	103.46180	758.75891	-797.07092	-76.94556	658.15857	-698.81073	-4.23290	704.26404	-695.12311	-68.18214	607.34760	-565.28992	-42.27744	545.43774	-533.48376	73.12635	533.69897	-551.71802	-40.06406	511.36206	-509.28125	11.68565	461.55414	-622.75293	-44.44295	455.79266	-743.49933	-8.96823	211.23578	-648.80072	-64.75797	165.01295	-610.59100	-75.20657	158.78912	-547.23401	-34.68191	161.84610	-594.78638	25.77346	164.76884	-699.80969	79.57191	206.17720	-669.37958	56.73863	150.45064	-785.44464	51.55564	180.71980	-808.69647	304.05450	634.72546	-703.27576	227.69862	699.44354	-678.58435	306.40997	592.54462	-584.52502	289.42087	540.56354	-510.11685	181.60211	529.00531	-551.33936	289.50995	509.40933	-499.11469	241.35837	468.69693	-611.56689	287.58243	457.30801	-755.87476	223.98798	207.28438	-661.91998	297.62781	158.48161	-625.88025	305.78305	158.96231	-554.58728	257.89734	162.83197	-590.16364	219.38048	173.02426	-695.93225	151.97472	207.54471	-673.24646	173.49892	153.10893	-788.36169	169.61990	191.04785	-528.48572	304.39569	146.67639	-518.05383	-72.42696	142.44247	-875.81616	-78.67710	141.04128	-882.63483	296.16202	144.63933	
398	7.940	-237.95557	118.05437	1170.00293	-444.40201	-48.43568	966.62170	-447.78479	281.05878	956.63824	-573.68915	104.96297	798.97217	-798.67816	-2.60995	732.81757	-793.03735	237.78606	735.44312	-1002.13977	103.89731	763.50482	-797.05298	-76.92291	661.26648	-697.98572	-4.91279	706.69519	-695.57111	-68.37753	609.41406	-566.32208	-42.85521	546.07635	-534.09924	72.33795	534.06787	-552.84131	-40.72422	511.82040	-509.92590	11.31598	462.33743	-623.63275	-44.99210	456.06836	-743.61694	-9.17643	211.04305	-648.91290	-64.86288	164.87500	-610.57861	-75.36483	158.86691	-547.19604	-34.74652	161.92137	-594.81165	25.65957	164.78845	-700.00793	79.45715	206.28275	-669.25909	56.85062	150.48282	-785.50476	51.49002	180.47168	-808.11505	303.99384	637.95245	-702.01965	227.81560	701.88953	-678.33508	306.27240	594.54413	-585.03198	288.94278	541.51721	-510.65100	181.14624	529.36499	-551.94446	288.97281	510.05466	-499.33154	240.51117	469.44437	-612.08087	287.14673	457.72098	-755.95392	224.14014	207.08972	-661.94208	297.68735	158.45929	-625.89709	305.84509	158.95743	-554.59515	257.88031	162.89224	-590.17767	219.45073	173.04980	-696.06213	151.93565	207.50131	-673.24237	173.50044	153.11955	-788.40405	169.72458	190.96773	-528.52332	304.42178	146.67146	-518.06726	-72.45773	142.46606	-875.82648	-78.64945	141.02534	-882.64386	296.18576	144.66486	
399	7.960	-239.61395	117.39531	1179.25757	-446.25333	-49.02998	974.70435	-448.43628	281.05267	964.26044	-572.87592	104.76974	806.76935	-797.68787	-2.33416	738.18286	-792.37671	237.81482	740.55273	-1001.43744	104.31683	768.71759	-797.01111	-76.96160	664.70630	-697.03412	-5.77693	709.32782	-696.04633	-68.69948	611.63043	-567.48730	-43.56711	546.80469	-534.73895	71.27158	534.54889	-554.07739	-41.51896	512.27802	-510.73248	10.88056	463.14313	-624.59875	-45.64427	456.41785	-743.82623	-9.36633	210.90500	-649.02948	-65.03326	164.73792	-610.58685	-75.55447	158.89645	-547.12958	-34.82441	162.02469	-594.83820	25.52055	164.82700	-700.20923	79.22018	206.39442	-669.32617	56.72923	150.45236	-785.58722	51.38952	180.22188	-807.52441	303.88953	641.58777	-700.65588	227.94519	704.55371	-678.08551	306.14355	596.73096	-585.59045	288.44540	542.59467	-511.27618	180.67661	529.76678	-552.65924	288.42630	510.70850	-499.74350	239.72185	470.33423	-612.64911	286.72925	458.14484	-756.07684	224.33910	206.93797	-661.94574	297.75131	158.44421	-625.91559	305.91092	158.95625	-554.61481	257.86783	162.94450	-590.22070	219.51569	173.05530	-696.20111	151.93062	207.48071	-673.25226	173.52200	153.10118	-788.40143	169.84433	190.95813	-528.52606	304.42938	146.67210	-518.07672	-72.48965	142.51466	-875.82880	-78.61705	141.02467	-882.66437	296.19312	144.67209	
400	7.980	-241.57492	116.85762	1189.49731	-448.23712	-49.53064	983.37683	-449.19019	281.04187	972.82770	-572.05457	104.57111	815.05573	-796.70703	-2.04743	743.95062	-791.64185	237.73723	746.11145	-1000.63702	104.70490	774.39703	-796.97174	-77.04369	668.47595	-696.01874	-6.79117	712.17468	-696.57635	-69.12285	613.98853	-568.71039	-44.37784	547.60797	-535.42932	70.01435	535.14801	-555.38129	-42.41130	512.77826	-511.74536	10.18588	463.85355	-625.63702	-46.34380	456.79303	-744.04492	-9.53553	210.77759	-649.14532	-65.25366	164.60681	-610.60638	-75.69412	158.80281	-547.04614	-34.89995	162.10104	-594.87579	25.37925	164.92023	-700.38696	78.93530	206.55650	-669.44012	56.39781	150.42119	-785.61975	51.24807	180.07178	-806.88379	303.75949	645.66382	-699.26642	228.19037	707.55701	-677.92090	305.95615	599.05365	-586.22235	287.89404	543.80591	-512.01215	180.22035	530.22571	-553.48865	287.93036	511.40491	-500.35565	239.07239	471.28049	-613.28961	286.38788	458.67456	-756.26099	224.57304	206.86588	-661.91412	297.82880	158.43631	-625.92010	305.96991	158.95598	-554.65143	257.84070	162.97353	-590.23718	219.57896	173.07315	-696.35059	151.98355	207.47089	-673.27643	173.59216	153.05684	-788.40515	170.01193	190.98212	-528.49567	304.42319	146.67870	-518.07928	-72.48447	142.53537	-875.82086	-78.59554	141.03911	-882.67334	296.18469	144.65936	
